<svg xmlns="http://www.w3.org/2000/svg" aria-hidden="true" style="position:absolute;width:0;height:0;overflow:hidden"><defs><symbol id="icon-twitter" viewBox="0 0 42 32"><path d="M40.696 4.544A18.069 18.069 0 0 1 36 5.732c1.689-.931 2.979-2.395 3.585-4.159a17.105 17.105 0 0 1-5.168 1.821c-1.496-1.47-3.627-2.381-5.953-2.381-4.512 0-8.144 3.381-8.144 7.527 0 .596.055 1.17.189 1.716-6.775-.305-12.771-3.303-16.798-7.871-.703 1.126-1.116 2.416-1.116 3.804 0 2.606 1.453 4.916 3.62 6.254a8.566 8.566 0 0 1-3.682-.927v.083c0 3.657 2.825 6.694 6.529 7.394a8.743 8.743 0 0 1-2.137.248c-.522 0-1.048-.028-1.543-.128 1.056 2.98 4.052 5.171 7.615 5.242-2.773 2.003-6.293 3.209-10.105 3.209-.668 0-1.309-.028-1.95-.103 3.61 2.15 7.888 3.377 12.502 3.377 14.997 0 23.196-11.47 23.196-21.413 0-.333-.012-.654-.03-.973a15.644 15.644 0 0 0 4.085-3.907z"/></symbol><symbol id="icon-instagram" viewBox="0 0 35 32"><path fill="#fff" d="M29.954.102H5.595C2.813.102.548 2.193.548 4.762v22.492c0 2.57 2.264 4.66 5.047 4.66h24.359c2.783 0 5.047-2.09 5.047-4.66V4.762c0-2.569-2.264-4.66-5.047-4.66zm3.028 27.151c0 1.542-1.359 2.796-3.028 2.796H5.595c-1.669 0-3.028-1.254-3.028-2.796V4.761c0-1.541 1.359-2.796 3.028-2.796h24.359c1.669 0 3.028 1.254 3.028 2.796v22.492z" style="fill:var(--color1, #fff)"/><path fill="#fff" d="M28.877 3.892c-1.113 0-2.019.836-2.019 1.864s.906 1.864 2.019 1.864 2.019-.836 2.019-1.864-.906-1.864-2.019-1.864zM17.774 7.62c-5.009 0-9.084 3.763-9.084 8.388s4.075 8.388 9.084 8.388c5.009 0 9.084-3.763 9.084-8.388S22.783 7.62 17.774 7.62zm0 14.911c-3.896 0-7.065-2.926-7.065-6.524s3.169-6.524 7.065-6.524c3.896 0 7.066 2.926 7.066 6.524s-3.169 6.524-7.066 6.524z" style="fill:var(--color1, #fff)"/></symbol><symbol id="icon-facebook" viewBox="0 0 17 32"><path d="M14.91 6.409c-.827-.242-1.778-.403-2.646-.403-1.075 0-3.391.684-3.391 2.013V11.2h5.5v5.355h-5.5v14.776H3.332V16.555H.603V11.2h2.729V8.502c0-4.067 1.902-7.449 6.492-7.449 1.571 0 4.383.081 5.913.604l-.827 4.751z"/></symbol><symbol id="icon-video" viewBox="0 0 32 32"><path fill="#fff" d="M16.145.159C7.446.159.37 7.236.37 15.934s7.076 15.775 15.775 15.775S31.92 24.632 31.92 15.934 24.844.159 16.145.159zm0 30.235c-7.973 0-14.46-6.487-14.46-14.46s6.487-14.46 14.46-14.46c7.973 0 14.46 6.487 14.46 14.46s-6.487 14.46-14.46 14.46z" style="fill:var(--color1, #fff)"/><path fill="#fff" d="m22.416 15.381-9.202-5.916a.656.656 0 0 0-1.013.553v11.831a.655.655 0 0 0 1.014.552l9.202-5.916a.66.66 0 0 0 0-1.106zm-8.9 5.264v-9.423l7.329 4.711-7.329 4.711z" style="fill:var(--color1, #fff)"/></symbol></defs></svg>